<svg width="235" height="235" viewBox="0 0 235 235" fill="none" xmlns="http://www.w3.org/2000/svg">
<g clip-path="url(#clip0_66_329)">
<path d="M117.5 0C52.6073 0 0 52.6061 0 117.5C0 182.393 52.6073 235 117.5 235C182.393 235 235 182.393 235 117.5C235 52.6061 182.393 0 117.5 0ZM117.5 218.952C61.4686 218.952 16.0466 173.53 16.0466 117.5C16.0466 61.4686 61.4686 16.0454 117.5 16.0454C173.531 16.0454 218.953 61.4686 218.953 117.5C218.953 173.53 173.531 218.952 117.5 218.952Z" fill="#E3E3E3"/>
<path d="M212 117.503C212 169.692 169.692 212 117.501 212C65.3082 212 23 169.693 23 117.503C23 65.3106 65.3082 23 117.501 23C169.691 23 212 65.3106 212 117.503Z" fill="#EDA33F"/>
<path d="M209.618 96.0449C204.143 94.2571 197.485 92.5169 191.851 91.7841L147.866 85.5523C97.2189 79.2706 57.0668 82.1206 27.6108 87.8933C24.6298 97.1155 23 106.949 23 117.168C23 169.542 65.3082 212 117.501 212C169.691 212 212 169.543 212 117.168C212 109.903 211.16 102.841 209.618 96.0449Z" fill="#352200"/>
<path d="M148.021 86C107.335 86 62.6483 117.876 29 150.263C41.9234 185.31 74.997 210.567 114.154 212C134.696 166.632 167.824 96.8377 192 92.2153L148.021 86Z" fill="#58595B"/>
<path d="M56 183.172C57.9163 180.445 64.1448 172.694 66.1369 170L71 172.656C69.1421 175.435 63.1236 183.158 61.3229 186L56 183.172Z" fill="#FFE500"/>
<path d="M73 161.413C75.2225 158.742 80.5168 152.636 82.8144 150L87 152.368C84.8436 155.097 79.7591 161.209 77.6573 164L73 161.413Z" fill="#FFE500"/>
<path d="M89 142.468C91.2002 140.15 94.6812 136.304 96.9658 134L100 135.294C97.8829 137.647 94.541 141.568 92.45 144L89 142.468Z" fill="#FFE500"/>
<path d="M104 126.667C106.417 124.426 108.919 122.175 111.429 120L114 121.08C111.614 123.355 109.309 125.637 106.997 128L104 126.667Z" fill="#FFE500"/>
<path d="M119 112.926C121.488 110.91 124.076 108.904 126.686 107L129 107.795C126.504 109.809 124.102 111.855 121.703 114L119 112.926Z" fill="#FFE500"/>
<path d="M134 101.139C136.734 99.3235 139.601 97.5702 142.509 96L144 96.523C141.187 98.2231 138.51 100.043 135.846 102L134 101.139Z" fill="#FFE500"/>
<path d="M152 91.3683C155.215 90.2951 158.554 89.447 161.954 89L162 89.2383C158.646 89.8273 155.411 90.8022 152.28 92L152 91.3683Z" fill="#FFE500"/>
</g>
<defs>
<clipPath id="clip0_66_329">
<rect width="235.001" height="234.999" fill="white"/>
</clipPath>
</defs>
</svg>
